<mxfile host="app.diagrams.net" agent="Mozilla/5.0 (Macintosh; Intel Mac OS X 10_15_7) AppleWebKit/537.36 (KHTML, like Gecko) Chrome/130.0.0.0 Safari/537.36" version="24.8.2">
  <diagram id="C5RBs43oDa-KdzZeNtuy" name="Page-1">
    <mxGraphModel dx="1064" dy="674" grid="1" gridSize="10" guides="1" tooltips="1" connect="1" arrows="1" fold="1" page="1" pageScale="1" pageWidth="827" pageHeight="1169" math="0" shadow="0">
      <root>
        <mxCell id="WIyWlLk6GJQsqaUBKTNV-0" />
        <mxCell id="WIyWlLk6GJQsqaUBKTNV-1" parent="WIyWlLk6GJQsqaUBKTNV-0" />
        <mxCell id="WIyWlLk6GJQsqaUBKTNV-2" value="" style="rounded=0;html=1;jettySize=auto;orthogonalLoop=1;fontSize=11;endArrow=block;endFill=0;endSize=8;strokeWidth=1;shadow=0;labelBackgroundColor=none;edgeStyle=orthogonalEdgeStyle;" parent="WIyWlLk6GJQsqaUBKTNV-1" source="WIyWlLk6GJQsqaUBKTNV-3" target="WIyWlLk6GJQsqaUBKTNV-6" edge="1">
          <mxGeometry relative="1" as="geometry" />
        </mxCell>
        <mxCell id="WIyWlLk6GJQsqaUBKTNV-3" value="Start" style="rounded=1;whiteSpace=wrap;html=1;fontSize=12;glass=0;strokeWidth=1;shadow=0;fillColor=#0050ef;strokeColor=#001DBC;fontColor=#ffffff;" parent="WIyWlLk6GJQsqaUBKTNV-1" vertex="1">
          <mxGeometry x="357.5" y="65" width="120" height="40" as="geometry" />
        </mxCell>
        <mxCell id="WIyWlLk6GJQsqaUBKTNV-4" value="Yes" style="rounded=0;html=1;jettySize=auto;orthogonalLoop=1;fontSize=11;endArrow=block;endFill=0;endSize=8;strokeWidth=1;shadow=0;labelBackgroundColor=none;edgeStyle=orthogonalEdgeStyle;" parent="WIyWlLk6GJQsqaUBKTNV-1" source="WIyWlLk6GJQsqaUBKTNV-6" target="WIyWlLk6GJQsqaUBKTNV-10" edge="1">
          <mxGeometry x="-0.9649" y="23" relative="1" as="geometry">
            <mxPoint x="-1" as="offset" />
          </mxGeometry>
        </mxCell>
        <mxCell id="YYH3fKewg2bf2O9j_7e5-5" value="" style="edgeStyle=orthogonalEdgeStyle;rounded=0;orthogonalLoop=1;jettySize=auto;html=1;" edge="1" parent="WIyWlLk6GJQsqaUBKTNV-1" source="WIyWlLk6GJQsqaUBKTNV-6" target="YYH3fKewg2bf2O9j_7e5-4">
          <mxGeometry relative="1" as="geometry" />
        </mxCell>
        <mxCell id="YYH3fKewg2bf2O9j_7e5-6" value="No" style="edgeLabel;html=1;align=center;verticalAlign=middle;resizable=0;points=[];" vertex="1" connectable="0" parent="YYH3fKewg2bf2O9j_7e5-5">
          <mxGeometry x="0.2267" relative="1" as="geometry">
            <mxPoint x="-39" y="-10" as="offset" />
          </mxGeometry>
        </mxCell>
        <mxCell id="WIyWlLk6GJQsqaUBKTNV-6" value="Name entered?" style="rhombus;whiteSpace=wrap;html=1;shadow=0;fontFamily=Helvetica;fontSize=12;align=center;strokeWidth=1;spacing=6;spacingTop=-4;fillColor=#fa6800;strokeColor=#C73500;fontColor=#000000;" parent="WIyWlLk6GJQsqaUBKTNV-1" vertex="1">
          <mxGeometry x="352.5" y="255" width="130" height="100" as="geometry" />
        </mxCell>
        <mxCell id="WIyWlLk6GJQsqaUBKTNV-8" value="Yes" style="rounded=0;html=1;jettySize=auto;orthogonalLoop=1;fontSize=11;endArrow=block;endFill=0;endSize=8;strokeWidth=1;shadow=0;labelBackgroundColor=none;edgeStyle=orthogonalEdgeStyle;" parent="WIyWlLk6GJQsqaUBKTNV-1" source="WIyWlLk6GJQsqaUBKTNV-10" target="WIyWlLk6GJQsqaUBKTNV-11" edge="1">
          <mxGeometry x="-0.9365" y="13" relative="1" as="geometry">
            <mxPoint x="-1" as="offset" />
          </mxGeometry>
        </mxCell>
        <mxCell id="YYH3fKewg2bf2O9j_7e5-107" value="Yes" style="edgeLabel;html=1;align=center;verticalAlign=middle;resizable=0;points=[];" vertex="1" connectable="0" parent="WIyWlLk6GJQsqaUBKTNV-8">
          <mxGeometry x="0.1782" relative="1" as="geometry">
            <mxPoint x="13" y="-67" as="offset" />
          </mxGeometry>
        </mxCell>
        <mxCell id="YYH3fKewg2bf2O9j_7e5-110" value="Yes" style="edgeLabel;html=1;align=center;verticalAlign=middle;resizable=0;points=[];" vertex="1" connectable="0" parent="WIyWlLk6GJQsqaUBKTNV-8">
          <mxGeometry x="0.048" y="1" relative="1" as="geometry">
            <mxPoint x="12" y="-3" as="offset" />
          </mxGeometry>
        </mxCell>
        <mxCell id="YYH3fKewg2bf2O9j_7e5-12" value="" style="edgeStyle=orthogonalEdgeStyle;rounded=0;orthogonalLoop=1;jettySize=auto;html=1;" edge="1" parent="WIyWlLk6GJQsqaUBKTNV-1" source="WIyWlLk6GJQsqaUBKTNV-10" target="YYH3fKewg2bf2O9j_7e5-11">
          <mxGeometry relative="1" as="geometry" />
        </mxCell>
        <mxCell id="YYH3fKewg2bf2O9j_7e5-14" value="No" style="edgeLabel;html=1;align=center;verticalAlign=middle;resizable=0;points=[];" vertex="1" connectable="0" parent="YYH3fKewg2bf2O9j_7e5-12">
          <mxGeometry x="0.4207" y="2" relative="1" as="geometry">
            <mxPoint x="-36" y="-8" as="offset" />
          </mxGeometry>
        </mxCell>
        <mxCell id="WIyWlLk6GJQsqaUBKTNV-10" value="Answer entered?" style="rhombus;whiteSpace=wrap;html=1;shadow=0;fontFamily=Helvetica;fontSize=12;align=center;strokeWidth=1;spacing=6;spacingTop=-4;fillColor=#fa6800;fontColor=#000000;strokeColor=#C73500;" parent="WIyWlLk6GJQsqaUBKTNV-1" vertex="1">
          <mxGeometry x="350" y="640" width="135" height="110" as="geometry" />
        </mxCell>
        <mxCell id="WIyWlLk6GJQsqaUBKTNV-11" value="End" style="rounded=1;whiteSpace=wrap;html=1;fontSize=12;glass=0;strokeWidth=1;shadow=0;fillColor=#0050ef;fontColor=#ffffff;strokeColor=#001DBC;" parent="WIyWlLk6GJQsqaUBKTNV-1" vertex="1">
          <mxGeometry x="357.5" y="1100" width="120" height="40" as="geometry" />
        </mxCell>
        <mxCell id="YYH3fKewg2bf2O9j_7e5-1" value="Enter name" style="shape=parallelogram;perimeter=parallelogramPerimeter;whiteSpace=wrap;html=1;fixedSize=1;fillColor=#e51400;strokeColor=#B20000;fontColor=#ffffff;" vertex="1" parent="WIyWlLk6GJQsqaUBKTNV-1">
          <mxGeometry x="357.5" y="145" width="120" height="60" as="geometry" />
        </mxCell>
        <mxCell id="YYH3fKewg2bf2O9j_7e5-7" style="edgeStyle=orthogonalEdgeStyle;rounded=0;orthogonalLoop=1;jettySize=auto;html=1;" edge="1" parent="WIyWlLk6GJQsqaUBKTNV-1" source="YYH3fKewg2bf2O9j_7e5-4" target="YYH3fKewg2bf2O9j_7e5-1">
          <mxGeometry relative="1" as="geometry">
            <mxPoint x="587.5" y="125" as="targetPoint" />
            <Array as="points">
              <mxPoint x="617.5" y="175" />
            </Array>
          </mxGeometry>
        </mxCell>
        <mxCell id="YYH3fKewg2bf2O9j_7e5-4" value="Display Erorr" style="whiteSpace=wrap;html=1;fillColor=#60a917;strokeColor=#2D7600;fontColor=#ffffff;shadow=0;strokeWidth=1;spacing=6;spacingTop=-4;" vertex="1" parent="WIyWlLk6GJQsqaUBKTNV-1">
          <mxGeometry x="557.5" y="275" width="120" height="60" as="geometry" />
        </mxCell>
        <mxCell id="YYH3fKewg2bf2O9j_7e5-8" value="Display Questions" style="rounded=0;whiteSpace=wrap;html=1;fillColor=#60a917;fontColor=#ffffff;strokeColor=#2D7600;" vertex="1" parent="WIyWlLk6GJQsqaUBKTNV-1">
          <mxGeometry x="357.5" y="405" width="120" height="60" as="geometry" />
        </mxCell>
        <mxCell id="YYH3fKewg2bf2O9j_7e5-9" value="Enter answer" style="shape=parallelogram;perimeter=parallelogramPerimeter;whiteSpace=wrap;html=1;fixedSize=1;fillColor=#e51400;fontColor=#ffffff;strokeColor=#B20000;" vertex="1" parent="WIyWlLk6GJQsqaUBKTNV-1">
          <mxGeometry x="357.5" y="525" width="120" height="60" as="geometry" />
        </mxCell>
        <mxCell id="YYH3fKewg2bf2O9j_7e5-13" style="edgeStyle=orthogonalEdgeStyle;rounded=0;orthogonalLoop=1;jettySize=auto;html=1;entryX=1;entryY=0.5;entryDx=0;entryDy=0;" edge="1" parent="WIyWlLk6GJQsqaUBKTNV-1" source="YYH3fKewg2bf2O9j_7e5-11" target="YYH3fKewg2bf2O9j_7e5-9">
          <mxGeometry relative="1" as="geometry">
            <mxPoint x="597.5" y="555" as="targetPoint" />
            <Array as="points">
              <mxPoint x="617.5" y="555" />
            </Array>
          </mxGeometry>
        </mxCell>
        <mxCell id="YYH3fKewg2bf2O9j_7e5-11" value="Display Erorr" style="whiteSpace=wrap;html=1;fillColor=#60a917;strokeColor=#2D7600;fontColor=#ffffff;shadow=0;strokeWidth=1;spacing=6;spacingTop=-4;" vertex="1" parent="WIyWlLk6GJQsqaUBKTNV-1">
          <mxGeometry x="557.5" y="665" width="120" height="60" as="geometry" />
        </mxCell>
        <mxCell id="YYH3fKewg2bf2O9j_7e5-101" style="edgeStyle=orthogonalEdgeStyle;rounded=0;orthogonalLoop=1;jettySize=auto;html=1;entryX=0.5;entryY=1;entryDx=0;entryDy=0;" edge="1" parent="WIyWlLk6GJQsqaUBKTNV-1" source="YYH3fKewg2bf2O9j_7e5-16" target="YYH3fKewg2bf2O9j_7e5-11">
          <mxGeometry relative="1" as="geometry" />
        </mxCell>
        <mxCell id="YYH3fKewg2bf2O9j_7e5-106" value="No" style="edgeLabel;html=1;align=center;verticalAlign=middle;resizable=0;points=[];" vertex="1" connectable="0" parent="YYH3fKewg2bf2O9j_7e5-101">
          <mxGeometry x="-0.7747" y="2" relative="1" as="geometry">
            <mxPoint x="-15" y="-8" as="offset" />
          </mxGeometry>
        </mxCell>
        <mxCell id="YYH3fKewg2bf2O9j_7e5-16" value="Answer valid?" style="rhombus;whiteSpace=wrap;html=1;shadow=0;fontFamily=Helvetica;fontSize=12;align=center;strokeWidth=1;spacing=6;spacingTop=-4;fillColor=#fa6800;fontColor=#000000;strokeColor=#C73500;" vertex="1" parent="WIyWlLk6GJQsqaUBKTNV-1">
          <mxGeometry x="350" y="805" width="135" height="110" as="geometry" />
        </mxCell>
        <mxCell id="YYH3fKewg2bf2O9j_7e5-108" value="Display Score" style="rounded=0;whiteSpace=wrap;html=1;fillColor=#60a917;fontColor=#ffffff;strokeColor=#2D7600;" vertex="1" parent="WIyWlLk6GJQsqaUBKTNV-1">
          <mxGeometry x="357.5" y="970" width="120" height="60" as="geometry" />
        </mxCell>
      </root>
    </mxGraphModel>
  </diagram>
</mxfile>
